<svg width="230" height="223" viewBox="0 0 230 223" fill="none" xmlns="http://www.w3.org/2000/svg">
<path d="M99.1275 223C147.464 223 186.648 220.559 186.648 217.548C186.648 214.536 147.464 212.095 99.1275 212.095C50.791 212.095 11.6066 214.536 11.6066 217.548C11.6066 220.559 50.791 223 99.1275 223Z" fill="#FFA31A"/>
<path opacity="0.8" d="M99.1275 223C147.464 223 186.648 220.559 186.648 217.548C186.648 214.536 147.464 212.095 99.1275 212.095C50.791 212.095 11.6066 214.536 11.6066 217.548C11.6066 220.559 50.791 223 99.1275 223Z" fill="#FFF1DD"/>
<path d="M164.896 10.2162H76.8936C70.8179 10.2162 65.8926 15.1415 65.8926 21.2172V207.005C65.8926 213.081 70.8179 218.006 76.8936 218.006H164.896C170.971 218.006 175.897 213.081 175.897 207.005V21.2172C175.897 15.1415 170.971 10.2162 164.896 10.2162Z" fill="#242424"/>
<path d="M171.005 33.0335H70.7787V195.189H171.005V33.0335Z" fill="#FFF1DD" stroke="#242424" stroke-width="1.33739" stroke-miterlimit="10"/>
<path d="M136.256 98.6949C144.74 90.211 144.74 76.4558 136.256 67.9718C127.772 59.4878 114.017 59.4878 105.533 67.9718C97.049 76.4558 97.049 90.211 105.533 98.6949C114.017 107.179 127.772 107.179 136.256 98.6949Z" fill="#FFA31A"/>
<path d="M149.416 184.992H92.3787C92.2503 184.993 92.1231 184.968 92.0043 184.919C91.8855 184.871 91.7774 184.799 91.6864 184.709C91.5954 184.618 91.5231 184.511 91.4738 184.392C91.4246 184.274 91.3992 184.146 91.3992 184.018C91.3984 183.889 91.4233 183.762 91.4722 183.642C91.5212 183.523 91.5933 183.415 91.6844 183.324C91.7755 183.233 91.8838 183.161 92.003 183.112C92.1221 183.063 92.2498 183.038 92.3787 183.039H149.416C149.545 183.039 149.672 183.064 149.79 183.113C149.909 183.163 150.016 183.235 150.107 183.326C150.197 183.417 150.269 183.525 150.318 183.644C150.366 183.763 150.391 183.89 150.39 184.018C150.39 184.276 150.287 184.524 150.105 184.707C149.922 184.889 149.674 184.992 149.416 184.992Z" fill="#FFA31A"/>
<path d="M151.273 117.271H90.5159C89.262 117.271 88.2455 118.287 88.2455 119.541V126.703C88.2455 127.957 89.262 128.974 90.5159 128.974H151.273C152.527 128.974 153.544 127.957 153.544 126.703V119.541C153.544 118.287 152.527 117.271 151.273 117.271Z" fill="#FFA31A"/>
<path d="M151.273 139.159H90.5159C89.262 139.159 88.2455 140.176 88.2455 141.43V148.592C88.2455 149.846 89.262 150.862 90.5159 150.862H151.273C152.527 150.862 153.544 149.846 153.544 148.592V141.43C153.544 140.176 152.527 139.159 151.273 139.159Z" fill="#FFA31A"/>
<path d="M131.712 94.1702L125.319 90.49V87.4495C126.245 86.3298 126.915 85.0217 127.284 83.6165C127.504 83.6946 127.736 83.7348 127.969 83.7354C128.762 83.7354 129.266 81.2781 129.351 79.5229C130.273 77.5696 129.017 76.4259 129.017 76.4259C129.017 76.4259 129.537 75.905 129.883 73.8158C130.228 71.7266 128.665 72.5985 127.448 70.6848C126.231 68.7711 125.359 66.6875 121.362 66.6875C120.26 66.6513 119.173 66.9473 118.242 67.537C117.311 68.1266 116.579 68.9828 116.141 69.994C115.146 69.9976 114.155 70.1135 113.186 70.3394C111.963 70.6848 111.618 74.6877 112.659 76.2561C113.126 77.1132 113.375 78.0716 113.384 79.0473C113.107 78.7076 112.818 78.617 112.659 79.3871C112.314 81.1252 113.707 83.5598 113.707 83.5598L114.426 83.356C114.788 84.8578 115.487 86.2576 116.47 87.4495V90.49L110.078 94.1702C109.331 94.6012 108.711 95.2209 108.28 95.9672C107.848 96.7136 107.621 97.5602 107.62 98.4222V100.528C111.422 103.465 116.091 105.059 120.895 105.059C125.699 105.059 130.367 103.465 134.169 100.528V98.4222C134.169 97.56 133.942 96.7129 133.511 95.9664C133.079 95.2198 132.459 94.6003 131.712 94.1702Z" fill="#242424"/>
<path d="M96.5176 147.952C96.3711 147.95 96.231 147.891 96.127 147.788C96.0713 147.738 96.0268 147.677 95.9965 147.609C95.9663 147.54 95.9509 147.466 95.9514 147.392C95.9532 147.289 95.9825 147.19 96.0364 147.103L97.0555 145.472L95.0682 145.534C94.9933 145.539 94.9183 145.528 94.848 145.502C94.7778 145.475 94.7139 145.434 94.6605 145.382C94.5682 145.278 94.5172 145.144 94.5172 145.005C94.5172 144.866 94.5682 144.732 94.6605 144.629C94.7127 144.574 94.7763 144.531 94.8467 144.504C94.9172 144.477 94.9928 144.465 95.0682 144.47L97.0272 144.544L96.0194 142.919C95.9646 142.83 95.9352 142.728 95.9345 142.624C95.9339 142.55 95.9493 142.476 95.9796 142.407C96.0098 142.339 96.0543 142.278 96.11 142.228C96.214 142.125 96.3541 142.066 96.5006 142.064C96.5971 142.064 96.6914 142.092 96.7726 142.145C96.8538 142.197 96.9185 142.271 96.9593 142.358L97.9274 144.108L98.8843 142.37C98.9297 142.277 98.9996 142.198 99.0864 142.142C99.1732 142.086 99.2737 142.055 99.3769 142.052C99.4484 142.053 99.5191 142.068 99.5844 142.097C99.6497 142.127 99.7082 142.169 99.7562 142.222C99.8601 142.33 99.9171 142.475 99.9147 142.624C99.9144 142.722 99.8891 142.817 99.8411 142.902L98.8163 144.544L100.804 144.47C100.879 144.465 100.955 144.477 101.025 144.504C101.096 144.531 101.159 144.574 101.211 144.629C101.308 144.729 101.361 144.863 101.359 145.002C101.358 145.143 101.306 145.278 101.211 145.382C101.158 145.434 101.094 145.475 101.024 145.502C100.954 145.528 100.879 145.539 100.804 145.534L98.805 145.472L99.8015 147.086C99.8574 147.176 99.8868 147.28 99.8864 147.386C99.8864 147.536 99.8268 147.68 99.7206 147.786C99.6144 147.892 99.4704 147.952 99.3202 147.952C99.2232 147.951 99.1286 147.921 99.0481 147.867C98.9677 147.813 98.9048 147.736 98.8673 147.646L97.9218 145.948L96.9819 147.646C96.9402 147.735 96.8748 147.811 96.7929 147.865C96.7109 147.919 96.6157 147.949 96.5176 147.952Z" fill="#242424"/>
<path d="M105.701 147.952C105.555 147.95 105.415 147.891 105.31 147.788C105.255 147.738 105.21 147.677 105.18 147.609C105.15 147.54 105.134 147.466 105.135 147.392C105.137 147.289 105.166 147.19 105.22 147.103L106.239 145.472L104.257 145.535C104.182 145.538 104.106 145.526 104.035 145.5C103.964 145.474 103.899 145.433 103.844 145.382C103.769 145.304 103.719 145.206 103.7 145.099C103.682 144.993 103.696 144.884 103.74 144.785C103.785 144.687 103.858 144.604 103.95 144.548C104.043 144.492 104.15 144.465 104.257 144.47L106.211 144.544L105.203 142.919C105.148 142.83 105.119 142.728 105.118 142.624C105.117 142.55 105.133 142.476 105.163 142.407C105.193 142.339 105.238 142.278 105.293 142.228C105.398 142.125 105.538 142.066 105.684 142.064C105.781 142.064 105.875 142.092 105.956 142.145C106.037 142.197 106.102 142.271 106.143 142.358L107.111 144.108L108.068 142.37C108.113 142.277 108.183 142.198 108.27 142.142C108.357 142.086 108.457 142.055 108.56 142.052C108.632 142.052 108.703 142.067 108.768 142.096C108.834 142.126 108.892 142.169 108.94 142.222C108.992 142.275 109.034 142.338 109.062 142.407C109.09 142.476 109.104 142.55 109.104 142.624C109.102 142.722 109.075 142.818 109.025 142.902L108 144.544L109.993 144.481C110.067 144.476 110.142 144.488 110.212 144.515C110.281 144.543 110.344 144.585 110.395 144.64C110.491 144.74 110.544 144.875 110.542 145.014C110.542 145.154 110.489 145.289 110.395 145.393C110.343 145.446 110.28 145.486 110.21 145.513C110.141 145.539 110.067 145.55 109.993 145.546L107.989 145.484L108.985 147.097C109.041 147.187 109.07 147.291 109.07 147.397C109.07 147.547 109.01 147.691 108.904 147.798C108.798 147.904 108.654 147.963 108.504 147.963C108.407 147.962 108.312 147.933 108.232 147.878C108.151 147.824 108.088 147.747 108.051 147.658L107.105 145.959L106.165 147.658C106.122 147.744 106.056 147.818 105.974 147.869C105.892 147.921 105.798 147.95 105.701 147.952Z" fill="#242424"/>
<path d="M114.89 147.952C114.742 147.951 114.599 147.893 114.494 147.788C114.438 147.738 114.394 147.677 114.364 147.609C114.333 147.54 114.318 147.466 114.319 147.392C114.32 147.289 114.35 147.19 114.403 147.103L115.423 145.472L113.441 145.535C113.334 145.539 113.229 145.511 113.138 145.455C113.047 145.399 112.974 145.317 112.93 145.22C112.886 145.123 112.871 145.015 112.889 144.91C112.906 144.804 112.954 144.706 113.028 144.629C113.081 144.574 113.146 144.532 113.217 144.504C113.288 144.477 113.365 144.465 113.441 144.47L115.394 144.544L114.386 142.919C114.332 142.83 114.302 142.728 114.302 142.624C114.303 142.55 114.32 142.477 114.35 142.409C114.38 142.341 114.423 142.279 114.477 142.228C114.582 142.123 114.725 142.064 114.873 142.064C114.969 142.065 115.062 142.094 115.142 142.146C115.222 142.198 115.286 142.272 115.326 142.358L116.294 144.108L117.251 142.37C117.297 142.277 117.367 142.198 117.453 142.142C117.54 142.086 117.641 142.055 117.744 142.052C117.816 142.052 117.887 142.067 117.952 142.096C118.017 142.126 118.076 142.169 118.123 142.222C118.176 142.275 118.217 142.338 118.245 142.407C118.274 142.476 118.288 142.55 118.287 142.624C118.285 142.722 118.258 142.818 118.208 142.902L117.183 144.544L119.176 144.47C119.25 144.463 119.324 144.471 119.393 144.495C119.463 144.519 119.527 144.557 119.581 144.607C119.634 144.658 119.676 144.719 119.704 144.787C119.732 144.855 119.745 144.929 119.743 145.002C119.744 145.142 119.693 145.277 119.601 145.382C119.548 145.434 119.484 145.475 119.414 145.502C119.343 145.528 119.268 145.539 119.193 145.535L117.195 145.472L118.186 147.086C118.241 147.176 118.271 147.28 118.27 147.386C118.269 147.46 118.252 147.534 118.222 147.602C118.192 147.67 118.149 147.731 118.095 147.782C118.046 147.835 117.986 147.878 117.92 147.907C117.854 147.936 117.782 147.951 117.71 147.952C117.614 147.95 117.52 147.921 117.441 147.866C117.361 147.812 117.299 147.735 117.263 147.646L116.311 145.948L115.372 147.646C115.329 147.738 115.261 147.816 115.176 147.87C115.091 147.924 114.991 147.953 114.89 147.952Z" fill="#242424"/>
<path d="M124.074 147.952C123.925 147.951 123.783 147.893 123.677 147.788C123.571 147.683 123.51 147.541 123.508 147.392C123.506 147.29 123.533 147.19 123.587 147.103L124.606 145.472L122.624 145.535C122.549 145.538 122.473 145.526 122.402 145.5C122.331 145.474 122.266 145.433 122.211 145.382C122.119 145.278 122.068 145.144 122.068 145.005C122.068 144.866 122.119 144.732 122.211 144.629C122.266 144.576 122.33 144.535 122.401 144.507C122.472 144.48 122.548 144.467 122.624 144.47L124.583 144.544L123.581 142.919C123.526 142.83 123.497 142.728 123.496 142.624C123.498 142.55 123.514 142.477 123.545 142.409C123.575 142.341 123.618 142.279 123.672 142.228C123.777 142.123 123.92 142.064 124.068 142.064C124.165 142.064 124.259 142.092 124.34 142.145C124.421 142.197 124.486 142.271 124.527 142.358L125.489 144.108L126.446 142.37C126.491 142.277 126.561 142.198 126.648 142.142C126.735 142.086 126.835 142.055 126.939 142.052C127.01 142.052 127.081 142.067 127.147 142.096C127.212 142.126 127.27 142.169 127.318 142.222C127.37 142.275 127.412 142.338 127.44 142.407C127.468 142.476 127.483 142.55 127.482 142.624C127.48 142.722 127.453 142.818 127.403 142.902L126.378 144.544L128.371 144.47C128.444 144.463 128.518 144.471 128.588 144.495C128.658 144.519 128.722 144.557 128.775 144.607C128.829 144.658 128.871 144.719 128.899 144.787C128.927 144.855 128.94 144.929 128.937 145.002C128.938 145.142 128.888 145.277 128.796 145.382C128.742 145.434 128.678 145.475 128.608 145.502C128.538 145.528 128.463 145.539 128.388 145.535L126.389 145.472L127.38 147.086C127.436 147.176 127.465 147.28 127.465 147.386C127.466 147.461 127.45 147.535 127.42 147.603C127.39 147.671 127.345 147.732 127.29 147.782C127.24 147.835 127.181 147.878 127.115 147.907C127.048 147.936 126.977 147.951 126.905 147.952C126.808 147.95 126.715 147.921 126.635 147.866C126.556 147.812 126.494 147.735 126.457 147.646L125.506 145.948L124.566 147.646C124.523 147.74 124.453 147.819 124.366 147.873C124.278 147.927 124.177 147.955 124.074 147.952Z" fill="#242424"/>
<path d="M133.257 147.952C133.109 147.952 132.966 147.893 132.861 147.788C132.773 147.699 132.717 147.584 132.702 147.46C132.687 147.336 132.713 147.21 132.776 147.103L133.79 145.472L131.808 145.535C131.732 145.538 131.657 145.526 131.586 145.5C131.515 145.474 131.45 145.433 131.395 145.382C131.302 145.278 131.251 145.144 131.251 145.005C131.251 144.866 131.302 144.732 131.395 144.629C131.449 144.576 131.514 144.535 131.585 144.507C131.656 144.48 131.732 144.467 131.808 144.47L133.767 144.544L132.759 142.919C132.704 142.83 132.675 142.728 132.674 142.624C132.676 142.475 132.737 142.333 132.844 142.228C132.949 142.123 133.092 142.064 133.24 142.064C133.337 142.064 133.431 142.092 133.512 142.145C133.593 142.197 133.658 142.271 133.699 142.358L134.661 144.108L135.618 142.37C135.664 142.277 135.734 142.198 135.82 142.142C135.907 142.086 136.008 142.055 136.111 142.052C136.183 142.052 136.255 142.067 136.322 142.096C136.388 142.126 136.447 142.169 136.496 142.222C136.6 142.33 136.657 142.475 136.654 142.624C136.652 142.722 136.625 142.818 136.575 142.902L135.55 144.544L137.543 144.47C137.617 144.463 137.691 144.471 137.76 144.495C137.83 144.519 137.894 144.557 137.948 144.607C138.001 144.658 138.043 144.719 138.071 144.787C138.099 144.855 138.112 144.929 138.11 145.002C138.111 145.142 138.06 145.277 137.968 145.382C137.915 145.434 137.851 145.475 137.78 145.502C137.71 145.528 137.635 145.539 137.56 145.535L135.562 145.472L136.553 147.086C136.608 147.176 136.638 147.28 136.637 147.386C136.638 147.461 136.623 147.535 136.592 147.603C136.562 147.671 136.518 147.732 136.462 147.782C136.413 147.835 136.353 147.878 136.287 147.907C136.221 147.936 136.149 147.951 136.077 147.952C135.981 147.95 135.887 147.921 135.807 147.866C135.728 147.812 135.666 147.735 135.63 147.646L134.678 145.948L133.739 147.646C133.696 147.738 133.628 147.816 133.543 147.87C133.458 147.924 133.358 147.953 133.257 147.952Z" fill="#242424"/>
<path d="M142.441 147.952C142.294 147.95 142.154 147.891 142.05 147.788C141.994 147.738 141.95 147.677 141.92 147.609C141.889 147.54 141.874 147.466 141.875 147.392C141.876 147.289 141.906 147.19 141.96 147.103L142.973 145.472L140.991 145.535C140.919 145.54 140.845 145.53 140.776 145.506C140.707 145.482 140.644 145.443 140.591 145.393C140.538 145.343 140.496 145.282 140.467 145.215C140.438 145.148 140.424 145.075 140.425 145.002C140.425 144.933 140.438 144.864 140.464 144.8C140.491 144.736 140.529 144.678 140.578 144.629C140.63 144.574 140.694 144.531 140.764 144.504C140.835 144.477 140.91 144.465 140.986 144.47L142.945 144.544L141.937 142.919C141.882 142.83 141.853 142.728 141.852 142.624C141.854 142.475 141.915 142.333 142.022 142.228C142.127 142.123 142.27 142.064 142.418 142.064C142.515 142.064 142.609 142.092 142.69 142.145C142.771 142.197 142.836 142.271 142.877 142.358L143.839 144.108L144.802 142.37C144.847 142.278 144.916 142.2 145.002 142.144C145.087 142.088 145.187 142.056 145.289 142.052C145.361 142.052 145.433 142.067 145.499 142.096C145.566 142.126 145.625 142.169 145.674 142.222C145.778 142.33 145.835 142.475 145.832 142.624C145.832 142.722 145.807 142.817 145.759 142.902L144.734 144.544L146.721 144.47C146.797 144.465 146.872 144.477 146.943 144.504C147.013 144.531 147.077 144.574 147.129 144.629C147.225 144.729 147.278 144.863 147.276 145.002C147.276 145.143 147.223 145.278 147.129 145.382C147.076 145.434 147.012 145.475 146.941 145.502C146.871 145.528 146.796 145.539 146.721 145.535L144.723 145.472L145.713 147.086C145.769 147.176 145.799 147.28 145.798 147.386C145.796 147.535 145.735 147.678 145.628 147.782C145.525 147.888 145.385 147.949 145.238 147.952C145.142 147.95 145.048 147.921 144.968 147.866C144.889 147.812 144.827 147.735 144.791 147.646L143.839 145.948L142.899 147.646C142.859 147.735 142.794 147.81 142.713 147.864C142.632 147.918 142.538 147.949 142.441 147.952Z" fill="#242424"/>
<g style="mix-blend-mode:multiply">
<path d="M171.005 33.2486H70.7787V39.5276H171.005V33.2486Z" fill="#FFA31A"/>
</g>
<path d="M131.791 21.6815H109.993C109.599 21.6815 109.222 21.5252 108.944 21.247C108.666 20.9688 108.509 20.5915 108.509 20.198C108.509 19.8046 108.666 19.4273 108.944 19.1491C109.222 18.8709 109.599 18.7146 109.993 18.7146H131.791C132.184 18.7146 132.562 18.8709 132.84 19.1491C133.118 19.4273 133.274 19.8046 133.274 20.198C133.274 20.5915 133.118 20.9688 132.84 21.247C132.562 21.5252 132.184 21.6815 131.791 21.6815Z" fill="#FFA31A" stroke="#242424" stroke-width="1.33739" stroke-linecap="round" stroke-linejoin="round"/>
<path d="M126.837 204.35C126.838 203.174 126.49 202.023 125.837 201.045C125.184 200.066 124.256 199.304 123.169 198.853C122.083 198.402 120.887 198.284 119.733 198.513C118.58 198.742 117.52 199.309 116.688 200.14C115.856 200.972 115.29 202.032 115.061 203.186C114.832 204.34 114.95 205.535 115.4 206.622C115.851 207.708 116.614 208.637 117.592 209.29C118.571 209.942 119.721 210.29 120.897 210.289C122.472 210.288 123.982 209.661 125.095 208.548C126.209 207.434 126.835 205.925 126.837 204.35Z" fill="#FFA31A"/>
<path d="M123.91 201.338H117.885V207.362H123.91V201.338Z" fill="#FFA31A" stroke="#242424" stroke-width="1.33739" stroke-linecap="round" stroke-linejoin="round"/>
<path d="M192.656 135.989C192.656 135.989 184.763 115.934 191.79 113.551C199.105 111.065 198.782 124.308 198.499 130.763C197.904 144.555 196.381 147.12 195.243 143.751L192.656 135.989ZM190.283 151.632C192.452 154.463 193.063 151.53 189.151 138.287C187.317 132.059 183.331 119.462 177.216 124.189C171.345 128.719 185.318 145.138 185.318 145.138L190.283 151.632ZM186.094 163.126C188.16 164.96 188.2 162.645 183.291 153.082C180.987 148.603 176.112 139.539 172.12 144.023C168.287 148.348 181.349 158.863 181.349 158.863L186.094 163.126ZM181.564 176.794C183.631 178.634 183.67 176.312 178.762 166.755C176.457 162.277 171.582 153.206 167.591 157.696C163.78 162.033 176.803 172.547 176.803 172.547L181.564 176.794ZM194.643 148.971C191.337 150.262 193.964 151.666 207.773 151.627C214.25 151.627 227.476 151.332 224.657 144.136C221.956 137.223 202.287 146.027 202.287 146.027L194.643 148.971ZM190.878 158.166C187.379 158.772 189.678 160.674 203.221 163.381C209.568 164.655 222.584 167.004 221.254 159.417C219.98 152.102 198.952 156.824 198.952 156.824L190.878 158.166ZM186.666 169.394C183.687 169.824 185.59 171.483 196.976 174.087C202.315 175.31 213.271 177.603 212.319 171.132C211.414 164.904 193.522 168.425 193.522 168.425L186.666 169.394ZM183.467 179.794C180.551 180.536 182.617 181.986 194.224 183.367C199.66 184.012 210.796 185.134 209.171 178.798C207.603 172.717 190.187 178.102 190.187 178.102L183.467 179.794ZM200.531 137.687C198.833 141.492 202.36 140.914 214.352 130.451C219.969 125.543 231.236 115.272 222.313 110.159C213.746 105.245 204.534 128.957 204.534 128.957L200.531 137.687ZM183.908 193.343C182.113 194.391 183.874 194.798 192.107 193.156C195.968 192.392 203.821 190.693 201.166 187.342C198.595 184.114 188.064 190.909 188.064 190.909L183.908 193.343Z" fill="#FFA31A"/>
<path opacity="0.3" d="M192.656 135.989C192.656 135.989 184.763 115.934 191.79 113.551C199.105 111.065 198.782 124.308 198.499 130.763C197.904 144.555 196.381 147.12 195.243 143.751L192.656 135.989ZM190.283 151.632C192.452 154.463 193.063 151.53 189.151 138.287C187.317 132.059 183.331 119.462 177.216 124.189C171.345 128.719 185.318 145.138 185.318 145.138L190.283 151.632ZM186.094 163.126C188.16 164.96 188.2 162.645 183.291 153.082C180.987 148.603 176.112 139.539 172.12 144.023C168.287 148.348 181.349 158.863 181.349 158.863L186.094 163.126ZM181.564 176.794C183.631 178.634 183.67 176.312 178.762 166.755C176.457 162.277 171.582 153.206 167.591 157.696C163.78 162.033 176.803 172.547 176.803 172.547L181.564 176.794ZM194.643 148.971C191.337 150.262 193.964 151.666 207.773 151.627C214.25 151.627 227.476 151.332 224.657 144.136C221.956 137.223 202.287 146.027 202.287 146.027L194.643 148.971ZM190.878 158.166C187.379 158.772 189.678 160.674 203.221 163.381C209.568 164.655 222.584 167.004 221.254 159.417C219.98 152.102 198.952 156.824 198.952 156.824L190.878 158.166ZM186.666 169.394C183.687 169.824 185.59 171.483 196.976 174.087C202.315 175.31 213.271 177.603 212.319 171.132C211.414 164.904 193.522 168.425 193.522 168.425L186.666 169.394ZM183.467 179.794C180.551 180.536 182.617 181.986 194.224 183.367C199.66 184.012 210.796 185.134 209.171 178.798C207.603 172.717 190.187 178.102 190.187 178.102L183.467 179.794ZM200.531 137.687C198.833 141.492 202.36 140.914 214.352 130.451C219.969 125.543 231.236 115.272 222.313 110.159C213.746 105.245 204.534 128.957 204.534 128.957L200.531 137.687ZM183.908 193.343C182.113 194.391 183.874 194.798 192.107 193.156C195.968 192.392 203.821 190.693 201.166 187.342C198.595 184.114 188.064 190.909 188.064 190.909L183.908 193.343Z" fill="#FFF1DD"/>
<path d="M196.138 145.325L194.762 122.434L196.138 145.325ZM191.784 152.878L183.087 133.192L191.784 152.878ZM214.227 147.154L193.386 150.143L214.227 147.154ZM187.277 163.488L175.993 149.011L187.277 163.488ZM189.259 159.049L204.806 159.831L189.259 159.049ZM185.578 170.152L197.468 171.33L185.578 170.152ZM182.708 177.207L176.803 168.323L182.708 177.207ZM182.028 180.344L196.008 180.474L182.028 180.344ZM179.198 206.569C179.291 206.562 179.378 206.518 179.44 206.447C179.501 206.376 179.532 206.284 179.526 206.19C178.637 192.839 183.801 170.973 192.084 153.025C197.378 141.554 218.128 119.009 218.349 118.782C218.416 118.715 218.453 118.625 218.453 118.53C218.453 118.436 218.416 118.345 218.349 118.278C218.317 118.245 218.278 118.219 218.235 118.202C218.192 118.184 218.146 118.175 218.1 118.175C218.054 118.175 218.008 118.184 217.965 118.202C217.922 118.219 217.884 118.245 217.851 118.278C217.642 118.505 196.806 141.135 191.467 152.708C183.031 171.092 177.935 192.562 178.841 206.235C178.848 206.325 178.888 206.41 178.954 206.471C179.02 206.533 179.107 206.568 179.198 206.569ZM196.132 145.676C196.226 145.67 196.313 145.628 196.376 145.558C196.438 145.488 196.471 145.396 196.466 145.302L195.113 122.4C195.111 122.354 195.099 122.308 195.079 122.266C195.059 122.224 195.031 122.186 194.996 122.155C194.961 122.124 194.921 122.1 194.877 122.085C194.833 122.069 194.786 122.063 194.739 122.066C194.646 122.072 194.558 122.114 194.496 122.184C194.433 122.254 194.401 122.346 194.405 122.44L195.781 145.331C195.785 145.421 195.824 145.506 195.89 145.568C195.955 145.63 196.042 145.665 196.132 145.665V145.676ZM191.908 153.201C191.993 153.162 192.06 153.092 192.094 153.005C192.127 152.919 192.126 152.822 192.09 152.736L183.387 133.05C183.35 132.965 183.28 132.897 183.193 132.863C183.106 132.829 183.009 132.831 182.923 132.869C182.837 132.906 182.77 132.976 182.736 133.064C182.702 133.151 182.704 133.248 182.742 133.333L191.438 153.019C191.466 153.083 191.511 153.137 191.568 153.175C191.625 153.213 191.692 153.234 191.761 153.235C191.82 153.238 191.878 153.226 191.931 153.201H191.908ZM193.414 150.483L214.244 147.505C214.295 147.504 214.344 147.492 214.39 147.471C214.435 147.449 214.476 147.418 214.508 147.38C214.541 147.342 214.565 147.297 214.579 147.249C214.593 147.2 214.597 147.15 214.59 147.1C214.584 147.05 214.566 147.002 214.54 146.959C214.513 146.917 214.478 146.88 214.436 146.852C214.394 146.824 214.347 146.805 214.297 146.797C214.248 146.788 214.197 146.79 214.148 146.803L193.318 149.781C193.225 149.787 193.138 149.83 193.077 149.9C193.015 149.97 192.984 150.061 192.99 150.155C192.996 150.248 193.039 150.335 193.109 150.396C193.179 150.458 193.27 150.489 193.363 150.483H193.414ZM187.475 163.771C187.549 163.713 187.597 163.628 187.609 163.535C187.62 163.442 187.595 163.348 187.537 163.273L176.248 148.767C176.19 148.692 176.105 148.643 176.011 148.631C175.917 148.619 175.822 148.644 175.747 148.702C175.672 148.76 175.622 148.845 175.61 148.939C175.598 149.033 175.624 149.128 175.682 149.203L186.994 163.732C187.027 163.774 187.069 163.808 187.117 163.832C187.165 163.855 187.218 163.868 187.271 163.868C187.356 163.863 187.436 163.829 187.498 163.771H187.475ZM205.117 159.848C205.121 159.754 205.087 159.663 205.023 159.594C204.96 159.525 204.871 159.484 204.778 159.48L189.259 158.693C189.171 158.699 189.089 158.736 189.028 158.799C188.967 158.861 188.931 158.944 188.927 159.031C188.923 159.119 188.951 159.205 189.006 159.273C189.06 159.341 189.138 159.386 189.225 159.4L204.772 160.187C204.866 160.19 204.957 160.157 205.026 160.093C205.095 160.029 205.136 159.941 205.14 159.848H205.117ZM197.797 171.364C197.802 171.317 197.798 171.27 197.785 171.225C197.772 171.18 197.75 171.138 197.721 171.102C197.691 171.065 197.655 171.035 197.613 171.013C197.572 170.991 197.526 170.977 197.48 170.973L185.59 169.801C185.544 169.797 185.497 169.801 185.453 169.814C185.408 169.828 185.367 169.85 185.331 169.879C185.295 169.909 185.266 169.945 185.244 169.986C185.222 170.027 185.209 170.072 185.205 170.118C185.197 170.211 185.226 170.303 185.285 170.375C185.344 170.447 185.429 170.493 185.522 170.503L197.412 171.681H197.446C197.537 171.687 197.627 171.658 197.697 171.598C197.767 171.539 197.811 171.455 197.819 171.364H197.797ZM182.878 177.501C182.956 177.449 183.011 177.368 183.03 177.276C183.049 177.184 183.031 177.088 182.98 177.009L177.103 168.125C177.049 168.049 176.968 167.996 176.876 167.978C176.784 167.96 176.689 167.978 176.61 168.029C176.531 168.081 176.477 168.162 176.457 168.254C176.438 168.347 176.457 168.443 176.508 168.522L182.385 177.405C182.419 177.454 182.464 177.493 182.516 177.521C182.568 177.549 182.626 177.563 182.685 177.564C182.762 177.568 182.838 177.546 182.9 177.501H182.878ZM196.364 180.474C196.363 180.381 196.326 180.292 196.26 180.225C196.195 180.159 196.106 180.12 196.013 180.117L182.034 179.987C181.941 179.987 181.852 180.024 181.786 180.09C181.72 180.156 181.683 180.245 181.683 180.338C181.682 180.385 181.69 180.431 181.707 180.475C181.724 180.519 181.749 180.558 181.782 180.592C181.815 180.625 181.854 180.651 181.898 180.669C181.941 180.687 181.987 180.695 182.034 180.695L196.013 180.825C196.061 180.827 196.109 180.82 196.154 180.803C196.199 180.787 196.24 180.761 196.274 180.729C196.309 180.696 196.337 180.656 196.357 180.613C196.376 180.569 196.386 180.522 196.387 180.474H196.364ZM177.607 201.377C177.635 201.315 180.018 194.747 187.186 193.179C187.279 193.159 187.359 193.103 187.41 193.023C187.461 192.943 187.478 192.847 187.458 192.754C187.435 192.664 187.378 192.586 187.299 192.536C187.22 192.487 187.125 192.469 187.034 192.488C179.475 194.142 176.967 201.077 176.938 201.145C176.909 201.235 176.916 201.332 176.957 201.416C176.998 201.501 177.071 201.566 177.159 201.598H177.272C177.348 201.605 177.423 201.587 177.487 201.547C177.552 201.507 177.601 201.448 177.629 201.377H177.607ZM179.198 206.569C179.291 206.562 179.378 206.518 179.44 206.447C179.501 206.376 179.532 206.284 179.526 206.19C178.637 192.839 183.801 170.973 192.084 153.025C197.378 141.554 218.128 119.009 218.349 118.782C218.416 118.715 218.453 118.625 218.453 118.53C218.453 118.436 218.416 118.345 218.349 118.278C218.317 118.245 218.278 118.219 218.235 118.202C218.192 118.184 218.146 118.175 218.1 118.175C218.054 118.175 218.008 118.184 217.965 118.202C217.922 118.219 217.884 118.245 217.851 118.278C217.642 118.505 196.806 141.135 191.467 152.708C183.031 171.092 177.935 192.562 178.841 206.235C178.848 206.325 178.888 206.41 178.954 206.471C179.02 206.533 179.107 206.568 179.198 206.569ZM196.132 145.676C196.226 145.67 196.313 145.628 196.376 145.558C196.438 145.488 196.471 145.396 196.466 145.302L195.113 122.4C195.111 122.354 195.099 122.308 195.079 122.266C195.059 122.224 195.031 122.186 194.996 122.155C194.961 122.124 194.921 122.1 194.877 122.085C194.833 122.069 194.786 122.063 194.739 122.066C194.646 122.072 194.558 122.114 194.496 122.184C194.433 122.254 194.401 122.346 194.405 122.44L195.781 145.331C195.785 145.421 195.824 145.506 195.89 145.568C195.955 145.63 196.042 145.665 196.132 145.665V145.676ZM191.908 153.201C191.993 153.162 192.06 153.092 192.094 153.005C192.127 152.919 192.126 152.822 192.09 152.736L183.387 133.05C183.35 132.965 183.28 132.897 183.193 132.863C183.106 132.829 183.009 132.831 182.923 132.869C182.837 132.906 182.77 132.976 182.736 133.064C182.702 133.151 182.704 133.248 182.742 133.333L191.438 153.019C191.466 153.083 191.511 153.137 191.568 153.175C191.625 153.213 191.692 153.234 191.761 153.235C191.82 153.238 191.878 153.226 191.931 153.201H191.908ZM193.414 150.483L214.244 147.505C214.295 147.504 214.344 147.492 214.39 147.471C214.435 147.449 214.476 147.418 214.508 147.38C214.541 147.342 214.565 147.297 214.579 147.249C214.593 147.2 214.597 147.15 214.59 147.1C214.584 147.05 214.566 147.002 214.54 146.959C214.513 146.917 214.478 146.88 214.436 146.852C214.394 146.824 214.347 146.805 214.297 146.797C214.248 146.788 214.197 146.79 214.148 146.803L193.318 149.781C193.225 149.787 193.138 149.83 193.077 149.9C193.015 149.97 192.984 150.061 192.99 150.155C192.996 150.248 193.039 150.335 193.109 150.396C193.179 150.458 193.27 150.489 193.363 150.483H193.414ZM187.475 163.771C187.549 163.713 187.597 163.628 187.609 163.535C187.62 163.442 187.595 163.348 187.537 163.273L176.248 148.767C176.219 148.73 176.183 148.699 176.143 148.676C176.102 148.652 176.057 148.637 176.011 148.631C175.964 148.625 175.917 148.628 175.872 148.64C175.826 148.653 175.784 148.674 175.747 148.702C175.709 148.731 175.678 148.767 175.655 148.807C175.631 148.848 175.616 148.893 175.61 148.939C175.604 148.986 175.607 149.033 175.62 149.078C175.632 149.124 175.653 149.166 175.682 149.203L186.994 163.732C187.027 163.774 187.069 163.808 187.117 163.832C187.165 163.855 187.218 163.868 187.271 163.868C187.356 163.863 187.436 163.829 187.498 163.771H187.475ZM205.117 159.848C205.121 159.754 205.087 159.663 205.023 159.594C204.96 159.525 204.871 159.484 204.778 159.48L189.259 158.693C189.171 158.699 189.089 158.736 189.028 158.799C188.967 158.861 188.931 158.944 188.927 159.031C188.923 159.119 188.951 159.205 189.006 159.273C189.06 159.341 189.138 159.386 189.225 159.4L204.772 160.187C204.866 160.19 204.957 160.157 205.026 160.093C205.095 160.029 205.136 159.941 205.14 159.848H205.117ZM197.797 171.364C197.802 171.317 197.798 171.27 197.785 171.225C197.772 171.18 197.75 171.138 197.721 171.102C197.691 171.065 197.655 171.035 197.613 171.013C197.572 170.991 197.526 170.977 197.48 170.973L185.59 169.801C185.544 169.797 185.497 169.801 185.453 169.814C185.408 169.828 185.367 169.85 185.331 169.879C185.295 169.909 185.266 169.945 185.244 169.986C185.222 170.027 185.209 170.072 185.205 170.118C185.197 170.211 185.226 170.303 185.285 170.375C185.344 170.447 185.429 170.493 185.522 170.503L197.412 171.681H197.446C197.537 171.687 197.627 171.658 197.697 171.598C197.767 171.539 197.811 171.455 197.819 171.364H197.797ZM182.878 177.501C182.956 177.449 183.011 177.368 183.03 177.276C183.049 177.184 183.031 177.088 182.98 177.009L177.103 168.125C177.049 168.049 176.968 167.996 176.876 167.978C176.784 167.96 176.689 167.978 176.61 168.029C176.531 168.081 176.477 168.162 176.457 168.254C176.438 168.347 176.457 168.443 176.508 168.522L182.385 177.405C182.419 177.454 182.464 177.493 182.516 177.521C182.568 177.549 182.626 177.563 182.685 177.564C182.762 177.568 182.838 177.546 182.9 177.501H182.878ZM196.364 180.474C196.363 180.381 196.326 180.292 196.26 180.225C196.195 180.159 196.106 180.12 196.013 180.117L182.034 179.987C181.941 179.987 181.852 180.024 181.786 180.09C181.72 180.156 181.683 180.245 181.683 180.338C181.682 180.385 181.69 180.431 181.707 180.475C181.724 180.519 181.749 180.558 181.782 180.592C181.815 180.625 181.854 180.651 181.898 180.669C181.941 180.687 181.987 180.695 182.034 180.695L196.013 180.825C196.061 180.827 196.109 180.82 196.154 180.803C196.199 180.787 196.24 180.761 196.274 180.729C196.309 180.696 196.337 180.656 196.357 180.613C196.376 180.569 196.386 180.522 196.387 180.474H196.364ZM177.607 201.377C177.635 201.315 180.018 194.747 187.186 193.179C187.279 193.159 187.359 193.103 187.41 193.023C187.461 192.943 187.478 192.847 187.458 192.754C187.435 192.664 187.378 192.586 187.299 192.536C187.22 192.487 187.125 192.469 187.034 192.488C179.475 194.142 176.967 201.077 176.938 201.145C176.909 201.235 176.916 201.332 176.957 201.416C176.998 201.501 177.071 201.566 177.159 201.598H177.272C177.348 201.605 177.423 201.587 177.487 201.547C177.552 201.507 177.601 201.448 177.629 201.377H177.607Z" fill="#FFA31A"/>
<path opacity="0.2" d="M196.138 145.325L194.762 122.434L196.138 145.325ZM191.784 152.878L183.087 133.192L191.784 152.878ZM214.227 147.154L193.386 150.143L214.227 147.154ZM187.277 163.488L175.993 149.011L187.277 163.488ZM189.259 159.049L204.806 159.831L189.259 159.049ZM185.578 170.152L197.468 171.33L185.578 170.152ZM182.708 177.207L176.803 168.323L182.708 177.207ZM182.028 180.344L196.008 180.474L182.028 180.344ZM179.198 206.569C179.291 206.562 179.378 206.518 179.44 206.447C179.501 206.376 179.532 206.284 179.526 206.19C178.637 192.839 183.801 170.973 192.084 153.025C197.378 141.554 218.128 119.009 218.349 118.782C218.416 118.715 218.453 118.625 218.453 118.53C218.453 118.436 218.416 118.345 218.349 118.278C218.317 118.245 218.278 118.219 218.235 118.202C218.192 118.184 218.146 118.175 218.1 118.175C218.054 118.175 218.008 118.184 217.965 118.202C217.922 118.219 217.884 118.245 217.851 118.278C217.642 118.505 196.806 141.135 191.467 152.708C183.031 171.092 177.935 192.562 178.841 206.235C178.848 206.325 178.888 206.41 178.954 206.471C179.02 206.533 179.107 206.568 179.198 206.569ZM196.132 145.676C196.226 145.67 196.313 145.628 196.376 145.558C196.438 145.488 196.471 145.396 196.466 145.302L195.113 122.4C195.111 122.354 195.099 122.308 195.079 122.266C195.059 122.224 195.031 122.186 194.996 122.155C194.961 122.124 194.921 122.1 194.877 122.085C194.833 122.069 194.786 122.063 194.739 122.066C194.646 122.072 194.558 122.114 194.496 122.184C194.433 122.254 194.401 122.346 194.405 122.44L195.781 145.331C195.785 145.421 195.824 145.506 195.89 145.568C195.955 145.63 196.042 145.665 196.132 145.665V145.676ZM191.908 153.201C191.993 153.162 192.06 153.092 192.094 153.005C192.127 152.919 192.126 152.822 192.09 152.736L183.387 133.05C183.35 132.965 183.28 132.897 183.193 132.863C183.106 132.829 183.009 132.831 182.923 132.869C182.837 132.906 182.77 132.976 182.736 133.064C182.702 133.151 182.704 133.248 182.742 133.333L191.438 153.019C191.466 153.083 191.511 153.137 191.568 153.175C191.625 153.213 191.692 153.234 191.761 153.235C191.82 153.238 191.878 153.226 191.931 153.201H191.908ZM193.414 150.483L214.244 147.505C214.295 147.504 214.344 147.492 214.39 147.471C214.435 147.449 214.476 147.418 214.508 147.38C214.541 147.342 214.565 147.297 214.579 147.249C214.593 147.2 214.597 147.15 214.59 147.1C214.584 147.05 214.566 147.002 214.54 146.959C214.513 146.917 214.478 146.88 214.436 146.852C214.394 146.824 214.347 146.805 214.297 146.797C214.248 146.788 214.197 146.79 214.148 146.803L193.318 149.781C193.225 149.787 193.138 149.83 193.077 149.9C193.015 149.97 192.984 150.061 192.99 150.155C192.996 150.248 193.039 150.335 193.109 150.396C193.179 150.458 193.27 150.489 193.363 150.483H193.414ZM187.475 163.771C187.549 163.713 187.597 163.628 187.609 163.535C187.62 163.442 187.595 163.348 187.537 163.273L176.248 148.767C176.19 148.692 176.105 148.643 176.011 148.631C175.917 148.619 175.822 148.644 175.747 148.702C175.672 148.76 175.622 148.845 175.61 148.939C175.598 149.033 175.624 149.128 175.682 149.203L186.994 163.732C187.027 163.774 187.069 163.808 187.117 163.832C187.165 163.855 187.218 163.868 187.271 163.868C187.356 163.863 187.436 163.829 187.498 163.771H187.475ZM205.117 159.848C205.121 159.754 205.087 159.663 205.023 159.594C204.96 159.525 204.871 159.484 204.778 159.48L189.259 158.693C189.171 158.699 189.089 158.736 189.028 158.799C188.967 158.861 188.931 158.944 188.927 159.031C188.923 159.119 188.951 159.205 189.006 159.273C189.06 159.341 189.138 159.386 189.225 159.4L204.772 160.187C204.866 160.19 204.957 160.157 205.026 160.093C205.095 160.029 205.136 159.941 205.14 159.848H205.117ZM197.797 171.364C197.802 171.317 197.798 171.27 197.785 171.225C197.772 171.18 197.75 171.138 197.721 171.102C197.691 171.065 197.655 171.035 197.613 171.013C197.572 170.991 197.526 170.977 197.48 170.973L185.59 169.801C185.544 169.797 185.497 169.801 185.453 169.814C185.408 169.828 185.367 169.85 185.331 169.879C185.295 169.909 185.266 169.945 185.244 169.986C185.222 170.027 185.209 170.072 185.205 170.118C185.197 170.211 185.226 170.303 185.285 170.375C185.344 170.447 185.429 170.493 185.522 170.503L197.412 171.681H197.446C197.537 171.687 197.627 171.658 197.697 171.598C197.767 171.539 197.811 171.455 197.819 171.364H197.797ZM182.878 177.501C182.956 177.449 183.011 177.368 183.03 177.276C183.049 177.184 183.031 177.088 182.98 177.009L177.103 168.125C177.049 168.049 176.968 167.996 176.876 167.978C176.784 167.96 176.689 167.978 176.61 168.029C176.531 168.081 176.477 168.162 176.457 168.254C176.438 168.347 176.457 168.443 176.508 168.522L182.385 177.405C182.419 177.454 182.464 177.493 182.516 177.521C182.568 177.549 182.626 177.563 182.685 177.564C182.762 177.568 182.838 177.546 182.9 177.501H182.878ZM196.364 180.474C196.363 180.381 196.326 180.292 196.26 180.225C196.195 180.159 196.106 180.12 196.013 180.117L182.034 179.987C181.941 179.987 181.852 180.024 181.786 180.09C181.72 180.156 181.683 180.245 181.683 180.338C181.682 180.385 181.69 180.431 181.707 180.475C181.724 180.519 181.749 180.558 181.782 180.592C181.815 180.625 181.854 180.651 181.898 180.669C181.941 180.687 181.987 180.695 182.034 180.695L196.013 180.825C196.061 180.827 196.109 180.82 196.154 180.803C196.199 180.787 196.24 180.761 196.274 180.729C196.309 180.696 196.337 180.656 196.357 180.613C196.376 180.569 196.386 180.522 196.387 180.474H196.364ZM177.607 201.377C177.635 201.315 180.018 194.747 187.186 193.179C187.279 193.159 187.359 193.103 187.41 193.023C187.461 192.943 187.478 192.847 187.458 192.754C187.435 192.664 187.378 192.586 187.299 192.536C187.22 192.487 187.125 192.469 187.034 192.488C179.475 194.142 176.967 201.077 176.938 201.145C176.909 201.235 176.916 201.332 176.957 201.416C176.998 201.501 177.071 201.566 177.159 201.598H177.272C177.348 201.605 177.423 201.587 177.487 201.547C177.552 201.507 177.601 201.448 177.629 201.377H177.607ZM179.198 206.569C179.291 206.562 179.378 206.518 179.44 206.447C179.501 206.376 179.532 206.284 179.526 206.19C178.637 192.839 183.801 170.973 192.084 153.025C197.378 141.554 218.128 119.009 218.349 118.782C218.416 118.715 218.453 118.625 218.453 118.53C218.453 118.436 218.416 118.345 218.349 118.278C218.317 118.245 218.278 118.219 218.235 118.202C218.192 118.184 218.146 118.175 218.1 118.175C218.054 118.175 218.008 118.184 217.965 118.202C217.922 118.219 217.884 118.245 217.851 118.278C217.642 118.505 196.806 141.135 191.467 152.708C183.031 171.092 177.935 192.562 178.841 206.235C178.848 206.325 178.888 206.41 178.954 206.471C179.02 206.533 179.107 206.568 179.198 206.569ZM196.132 145.676C196.226 145.67 196.313 145.628 196.376 145.558C196.438 145.488 196.471 145.396 196.466 145.302L195.113 122.4C195.111 122.354 195.099 122.308 195.079 122.266C195.059 122.224 195.031 122.186 194.996 122.155C194.961 122.124 194.921 122.1 194.877 122.085C194.833 122.069 194.786 122.063 194.739 122.066C194.646 122.072 194.558 122.114 194.496 122.184C194.433 122.254 194.401 122.346 194.405 122.44L195.781 145.331C195.785 145.421 195.824 145.506 195.89 145.568C195.955 145.63 196.042 145.665 196.132 145.665V145.676ZM191.908 153.201C191.993 153.162 192.06 153.092 192.094 153.005C192.127 152.919 192.126 152.822 192.09 152.736L183.387 133.05C183.35 132.965 183.28 132.897 183.193 132.863C183.106 132.829 183.009 132.831 182.923 132.869C182.837 132.906 182.77 132.976 182.736 133.064C182.702 133.151 182.704 133.248 182.742 133.333L191.438 153.019C191.466 153.083 191.511 153.137 191.568 153.175C191.625 153.213 191.692 153.234 191.761 153.235C191.82 153.238 191.878 153.226 191.931 153.201H191.908ZM193.414 150.483L214.244 147.505C214.295 147.504 214.344 147.492 214.39 147.471C214.435 147.449 214.476 147.418 214.508 147.38C214.541 147.342 214.565 147.297 214.579 147.249C214.593 147.2 214.597 147.15 214.59 147.1C214.584 147.05 214.566 147.002 214.54 146.959C214.513 146.917 214.478 146.88 214.436 146.852C214.394 146.824 214.347 146.805 214.297 146.797C214.248 146.788 214.197 146.79 214.148 146.803L193.318 149.781C193.225 149.787 193.138 149.83 193.077 149.9C193.015 149.97 192.984 150.061 192.99 150.155C192.996 150.248 193.039 150.335 193.109 150.396C193.179 150.458 193.27 150.489 193.363 150.483H193.414ZM187.475 163.771C187.549 163.713 187.597 163.628 187.609 163.535C187.62 163.442 187.595 163.348 187.537 163.273L176.248 148.767C176.219 148.73 176.183 148.699 176.143 148.676C176.102 148.652 176.057 148.637 176.011 148.631C175.964 148.625 175.917 148.628 175.872 148.64C175.826 148.653 175.784 148.674 175.747 148.702C175.709 148.731 175.678 148.767 175.655 148.807C175.631 148.848 175.616 148.893 175.61 148.939C175.604 148.986 175.607 149.033 175.62 149.078C175.632 149.124 175.653 149.166 175.682 149.203L186.994 163.732C187.027 163.774 187.069 163.808 187.117 163.832C187.165 163.855 187.218 163.868 187.271 163.868C187.356 163.863 187.436 163.829 187.498 163.771H187.475ZM205.117 159.848C205.121 159.754 205.087 159.663 205.023 159.594C204.96 159.525 204.871 159.484 204.778 159.48L189.259 158.693C189.171 158.699 189.089 158.736 189.028 158.799C188.967 158.861 188.931 158.944 188.927 159.031C188.923 159.119 188.951 159.205 189.006 159.273C189.06 159.341 189.138 159.386 189.225 159.4L204.772 160.187C204.866 160.19 204.957 160.157 205.026 160.093C205.095 160.029 205.136 159.941 205.14 159.848H205.117ZM197.797 171.364C197.802 171.317 197.798 171.27 197.785 171.225C197.772 171.18 197.75 171.138 197.721 171.102C197.691 171.065 197.655 171.035 197.613 171.013C197.572 170.991 197.526 170.977 197.48 170.973L185.59 169.801C185.544 169.797 185.497 169.801 185.453 169.814C185.408 169.828 185.367 169.85 185.331 169.879C185.295 169.909 185.266 169.945 185.244 169.986C185.222 170.027 185.209 170.072 185.205 170.118C185.197 170.211 185.226 170.303 185.285 170.375C185.344 170.447 185.429 170.493 185.522 170.503L197.412 171.681H197.446C197.537 171.687 197.627 171.658 197.697 171.598C197.767 171.539 197.811 171.455 197.819 171.364H197.797ZM182.878 177.501C182.956 177.449 183.011 177.368 183.03 177.276C183.049 177.184 183.031 177.088 182.98 177.009L177.103 168.125C177.049 168.049 176.968 167.996 176.876 167.978C176.784 167.96 176.689 167.978 176.61 168.029C176.531 168.081 176.477 168.162 176.457 168.254C176.438 168.347 176.457 168.443 176.508 168.522L182.385 177.405C182.419 177.454 182.464 177.493 182.516 177.521C182.568 177.549 182.626 177.563 182.685 177.564C182.762 177.568 182.838 177.546 182.9 177.501H182.878ZM196.364 180.474C196.363 180.381 196.326 180.292 196.26 180.225C196.195 180.159 196.106 180.12 196.013 180.117L182.034 179.987C181.941 179.987 181.852 180.024 181.786 180.09C181.72 180.156 181.683 180.245 181.683 180.338C181.682 180.385 181.69 180.431 181.707 180.475C181.724 180.519 181.749 180.558 181.782 180.592C181.815 180.625 181.854 180.651 181.898 180.669C181.941 180.687 181.987 180.695 182.034 180.695L196.013 180.825C196.061 180.827 196.109 180.82 196.154 180.803C196.199 180.787 196.24 180.761 196.274 180.729C196.309 180.696 196.337 180.656 196.357 180.613C196.376 180.569 196.386 180.522 196.387 180.474H196.364ZM177.607 201.377C177.635 201.315 180.018 194.747 187.186 193.179C187.279 193.159 187.359 193.103 187.41 193.023C187.461 192.943 187.478 192.847 187.458 192.754C187.435 192.664 187.378 192.586 187.299 192.536C187.22 192.487 187.125 192.469 187.034 192.488C179.475 194.142 176.967 201.077 176.938 201.145C176.909 201.235 176.916 201.332 176.957 201.416C176.998 201.501 177.071 201.566 177.159 201.598H177.272C177.348 201.605 177.423 201.587 177.487 201.547C177.552 201.507 177.601 201.448 177.629 201.377H177.607Z" fill="black"/>
<path d="M188.443 196.587H172.415V199.905H173.813L176.706 218.006H184.152L187.045 199.905H188.443V196.587Z" fill="#FFA31A"/>
<path opacity="0.3" d="M188.443 196.587H172.415V199.905H173.813L176.706 218.006H184.152L187.045 199.905H188.443V196.587Z" fill="#FFF1DD"/>
<path d="M44.1337 96.2594L25.4893 90.1729L23.8303 85.7906L20.0426 85.6717L13.1691 84.3695L13.9957 85.7906L22.647 92.0696L24.7815 93.1341L44.281 103.32L44.1337 96.2594Z" fill="#FFF1DD" stroke="#242424" stroke-width="1.00396" stroke-miterlimit="10"/>
<path d="M23.8304 85.7906L22.0525 84.7262L18.5026 86.0284L19.0914 86.7361L23.8304 85.7906Z" fill="#FFF1DD" stroke="#242424" stroke-width="1.00396" stroke-linejoin="round"/>
<path d="M44.1337 96.2594L25.4893 90.1729L23.8303 85.7906L20.0426 85.6717L13.1691 84.3695L13.9957 85.7906L22.647 92.0696L24.7815 93.1341L44.281 103.32L44.1337 96.2594Z" fill="#FFF1DD"/>
<mask id="mask0_16_4540" style="mask-type:luminance" maskUnits="userSpaceOnUse" x="13" y="84" width="32" height="20">
<path d="M44.1337 96.2594L25.4893 90.1729L23.8303 85.7906L20.0426 85.6717L13.1691 84.3695L13.9957 85.7906L22.647 92.0696L24.7815 93.1341L44.281 103.32L44.1337 96.2594Z" fill="white"/>
</mask>
<g mask="url(#mask0_16_4540)">
<path opacity="0.5" d="M44.1337 96.2594L25.4893 90.1729L23.8303 85.7906L20.0426 85.6717L13.1691 84.3695L13.9957 85.7906L22.647 92.0696L24.7815 93.1341L44.281 103.32L44.1337 96.2594Z" fill="#FFA31A" stroke="#242424" stroke-width="1.00396" stroke-miterlimit="10"/>
</g>
<path d="M44.1337 96.2594L25.4893 90.1729L23.8303 85.7906L20.0426 85.6717L13.1691 84.3695L13.9957 85.7906L22.647 92.0696L24.7815 93.1341L44.281 103.32L44.1337 96.2594Z" stroke="#242424" stroke-width="1.00396" stroke-miterlimit="10"/>
<path d="M23.8304 85.7906L22.0525 84.7262L18.5026 86.0284L19.0914 86.7361L23.8304 85.7906Z" fill="#FFF1DD"/>
<mask id="mask1_16_4540" style="mask-type:luminance" maskUnits="userSpaceOnUse" x="18" y="84" width="6" height="3">
<path d="M23.8304 85.7906L22.0525 84.7262L18.5026 86.0284L19.0914 86.7361L23.8304 85.7906Z" fill="white"/>
</mask>
<g mask="url(#mask1_16_4540)">
<path opacity="0.5" d="M23.8304 85.7906L22.0525 84.7262L18.5026 86.0284L19.0914 86.7361L23.8304 85.7906Z" fill="#FFA31A" stroke="#242424" stroke-width="1.00396" stroke-linejoin="round"/>
</g>
<path d="M23.8304 85.7906L22.0525 84.7262L18.5026 86.0284L19.0914 86.7361L23.8304 85.7906Z" stroke="#242424" stroke-width="1.00396" stroke-linejoin="round"/>
<path d="M48.0914 56.7566C48.0914 56.7566 47.8026 59.3045 48.5217 60.9408C49.2407 62.577 53.2323 68.12 53.2323 68.12L45.7813 74.0932C45.7813 74.0932 42.69 67.8652 42.1011 66.8574C41.5123 65.8496 40.8046 61.5126 42.7239 58.4042C44.6433 55.2959 47.4063 54.4579 48.0914 56.7566Z" fill="#FFF1DD"/>
<mask id="mask2_16_4540" style="mask-type:luminance" maskUnits="userSpaceOnUse" x="41" y="55" width="13" height="20">
<path d="M48.0914 56.7566C48.0914 56.7566 47.8026 59.3045 48.5217 60.9408C49.2407 62.577 53.2323 68.12 53.2323 68.12L45.7813 74.0932C45.7813 74.0932 42.69 67.8652 42.1011 66.8574C41.5123 65.8496 40.8046 61.5126 42.7239 58.4042C44.6433 55.2959 47.4063 54.4579 48.0914 56.7566Z" fill="white"/>
</mask>
<g mask="url(#mask2_16_4540)">
<g style="mix-blend-mode:multiply" opacity="0.5">
<path d="M44.2641 64.9437L47.497 71.6473L45.7758 74.0989L42.5259 68.2955L44.2641 64.9437Z" fill="#FFA31A"/>
</g>
</g>
<path d="M48.0914 56.7566C48.0914 56.7566 47.8026 59.3045 48.5217 60.9408C49.2407 62.577 53.2323 68.12 53.2323 68.12L45.7813 74.0932C45.7813 74.0932 42.69 67.8652 42.1011 66.8574C41.5123 65.8496 40.8046 61.5126 42.7239 58.4042C44.6433 55.2959 47.4063 54.4579 48.0914 56.7566Z" stroke="#242424" stroke-width="1.00396" stroke-miterlimit="10"/>
<path d="M50.4016 52.0913C49.943 49.2603 46.6987 43.5022 41.5521 43.723C38.2116 43.8703 36.6489 44.544 35.1995 45.365C34.018 46.0611 32.9168 46.8851 31.9156 47.8222C29.4018 50.84 28.5185 51.6666 29.0054 53.9767C28.9655 54.8981 29.1098 55.8181 29.4301 56.683C30.2001 58.7383 30.7266 60.0801 31.3947 61.0596C31.1909 62.0165 30.6587 64.5417 30.6304 65.1192C30.6021 65.6967 32.3289 65.2947 33.2009 65.0739C34.8202 68.6975 37.787 71.2114 38.7098 71.5001C40.3178 72.004 42.86 69.3599 44.2075 67.3103C45.555 65.2607 44.5359 62.9564 44.5416 62.0391C44.5472 61.1219 47.5706 59.1063 48.6917 58.4665C49.8127 57.8267 50.8545 54.9165 50.4016 52.0913Z" fill="#FFF1DD"/>
<mask id="mask3_16_4540" style="mask-type:luminance" maskUnits="userSpaceOnUse" x="28" y="43" width="23" height="29">
<path d="M50.4016 52.0913C49.943 49.2603 46.6987 43.5022 41.5521 43.723C38.2116 43.8703 36.6489 44.544 35.1995 45.365C34.018 46.0611 32.9168 46.8851 31.9156 47.8222C29.4018 50.84 28.5185 51.6666 29.0054 53.9767C28.9655 54.8981 29.1098 55.8181 29.4301 56.683C30.2001 58.7383 30.7266 60.0801 31.3947 61.0596C31.1909 62.0165 30.6587 64.5417 30.6304 65.1192C30.6021 65.6967 32.3289 65.2947 33.2009 65.0739C34.8202 68.6975 37.787 71.2114 38.7098 71.5001C40.3178 72.004 42.86 69.3599 44.2075 67.3103C45.555 65.2607 44.5359 62.9564 44.5416 62.0391C44.5472 61.1219 47.5706 59.1063 48.6917 58.4665C49.8127 57.8267 50.8545 54.9165 50.4016 52.0913Z" fill="white"/>
</mask>
<g mask="url(#mask3_16_4540)">
<g style="mix-blend-mode:multiply" opacity="0.5">
<path d="M29.0282 53.9767C28.9883 54.8981 29.1327 55.8182 29.4529 56.683C30.2229 58.7383 30.7494 60.0802 31.4175 61.0597C31.2137 62.0165 30.6815 64.5417 30.6532 65.1192C30.6249 65.6967 32.3518 65.2947 33.2237 65.0739C34.843 68.6975 37.8098 71.2114 38.7327 71.5001C40.3406 72.004 42.8828 69.3599 44.2303 67.3103C44.567 66.7986 44.7855 66.2184 44.8701 65.6118C44.7965 65.3457 44.7455 65.1815 44.7455 65.1815C44.7455 65.1815 43.9869 68.0973 42.4808 67.718C40.9748 67.3386 38.6704 64.3209 37.3851 63.2791C36.0999 62.2373 36.6264 60.8672 36.3717 59.3158C36.1169 57.7645 32.3121 56.3999 32.0573 55.511C31.8025 54.6221 32.6915 50.9419 32.6915 50.9419C32.6915 50.9419 34.1352 49.0169 33.8238 49.8095C33.6037 50.4968 33.5239 51.2213 33.5891 51.9401C33.6542 52.6588 33.8631 53.3571 34.2032 53.9937C34.4418 54.4959 34.8204 54.9185 35.2935 55.2108C35.7666 55.5031 36.314 55.6526 36.8699 55.6413L38.2514 48.7961L35.3355 46.3841L31.9384 47.7996C29.4019 50.84 28.5357 51.6666 29.0282 53.9767Z" fill="#FFA31A"/>
</g>
</g>
<path d="M50.4016 52.0913C49.943 49.2603 46.6987 43.5022 41.5521 43.723C38.2116 43.8703 36.6489 44.544 35.1995 45.365C34.018 46.0611 32.9168 46.8851 31.9156 47.8222C29.4018 50.84 28.5185 51.6666 29.0054 53.9767C28.9655 54.8981 29.1098 55.8181 29.4301 56.683C30.2001 58.7383 30.7266 60.0801 31.3947 61.0596C31.1909 62.0165 30.6587 64.5417 30.6304 65.1192C30.6021 65.6967 32.3289 65.2947 33.2009 65.0739C34.8202 68.6975 37.787 71.2114 38.7098 71.5001C40.3178 72.004 42.86 69.3599 44.2075 67.3103C45.555 65.2607 44.5359 62.9564 44.5416 62.0391C44.5472 61.1219 47.5706 59.1063 48.6917 58.4665C49.8127 57.8267 50.8545 54.9165 50.4016 52.0913Z" stroke="#242424" stroke-miterlimit="10"/>
<path d="M32.0966 59.3498L32.6627 60.9691C32.6627 60.9691 33.88 61.3711 35.3634 59.7518" stroke="#242424" stroke-miterlimit="10" stroke-linecap="round"/>
<path d="M36.2809 66.914C36.2809 66.914 37.6284 66.7781 38.1719 64.8871" stroke="#242424" stroke-miterlimit="10" stroke-linecap="round"/>
<path d="M31.1511 57.9966C31.1511 57.9966 31.5531 56.7793 33.982 56.7793" stroke="#242424" stroke-miterlimit="10" stroke-linecap="round"/>
<path d="M43.6016 41.4696C41.8367 41.2158 40.0568 41.0796 38.2738 41.062C38.2738 41.062 32.9404 37.9876 27.8164 41.2658C22.6924 44.544 25.1553 50.2851 25.1553 51.7176C25.1553 53.15 23.5134 53.1557 24.5382 55.0015C25.563 56.8472 29.028 55.8281 29.028 55.8281C29.0646 55.1319 29.2486 54.4515 29.5678 53.8317C29.8869 53.2119 30.334 52.667 30.8794 52.2328C32.7252 50.8004 34.1973 50.489 34.8088 50.9023C34.8088 50.9023 34.4011 53.9767 35.0126 55.2053C35.0126 55.2053 37.0622 56.2301 37.6793 56.2301C38.2965 56.2301 37.2773 57.0963 39.3213 57.8664C39.6936 58.0001 40.092 58.0457 40.4849 57.9995C40.8779 57.9533 41.2548 57.8167 41.586 57.6003C41.8861 56.3546 42.5429 54.4806 43.7658 54.9165C45.5606 55.5563 47.1969 59.9726 44.768 61.4786C47.6895 62.0108 51.2281 56.8416 51.4376 52.1309C51.6471 47.4202 46.6364 42.0018 43.6016 41.4696Z" fill="#242424"/>
<path d="M34.8993 48.881C34.8993 48.881 36.4053 48.0714 38.2511 49.8039C40.0969 51.5364 43.6865 53.8521 48.4424 52.5782" stroke="#FFF1DD" stroke-width="0.5" stroke-linecap="round" stroke-linejoin="round"/>
<path d="M34.6898 47.4938C34.6898 47.4938 35.7259 45.8746 37.4585 45.8746C39.191 45.8746 43.2392 48.3035 46.4721 48.3035" stroke="#FFF1DD" stroke-width="0.5" stroke-linecap="round" stroke-linejoin="round"/>
<path d="M33.5122 50.6135C33.5122 50.6135 31.5475 48.1902 29.7017 50.1549C27.856 52.1196 29.028 53.9767 29.028 53.9767" stroke="#FFF1DD" stroke-width="0.5" stroke-linecap="round" stroke-linejoin="round"/>
<path d="M25.6592 52.2328C26.785 51.2175 27.4849 49.8137 27.6182 48.3035C27.8503 45.7613 31.321 43.5645 33.5122 45.6481" stroke="#FFF1DD" stroke-width="0.5" stroke-linecap="round" stroke-linejoin="round"/>
<path d="M29.2375 42.987C29.2375 42.987 32.7083 39.6352 35.5958 43.9099" stroke="#FFF1DD" stroke-width="0.5" stroke-linecap="round" stroke-linejoin="round"/>
<path d="M57.4843 207.787C57.4843 207.787 59.6188 211.104 59.381 213.239L59.1489 215.373C59.1489 215.373 51.3185 217.519 49.6596 217.519C48.0007 217.519 39.2191 216.687 39.2191 216.687L38.8398 215.181C38.8132 215.07 38.8258 214.953 38.8752 214.85C38.9247 214.747 39.0082 214.664 39.1116 214.615L46.9419 210.963L49.4105 208.262L57.4843 207.787Z" fill="#FFF1DD" stroke="#242424" stroke-width="1.00396" stroke-miterlimit="10"/>
<path d="M50.8487 215.849C52.9719 216.013 57.0032 214.717 59.3415 213.89L59.1773 215.373C59.1773 215.373 51.3187 217.519 49.6597 217.519C48.0008 217.519 39.2193 216.687 39.2193 216.687L38.9475 215.611C40.3516 215.617 48.0404 215.634 50.8487 215.849Z" fill="#FFA31A" stroke="#242424" stroke-width="1.00396" stroke-miterlimit="10"/>
<path d="M46.9534 210.963L35.5561 215.923C35.5561 215.923 34.5823 218.363 35.5561 218.85C36.5299 219.337 57.7619 218.85 57.7619 218.85C57.7619 218.85 59.2283 214.994 56.9126 212.407C54.5969 209.819 46.9534 210.963 46.9534 210.963Z" fill="#FFF1DD" stroke="#242424" stroke-width="1.00396" stroke-miterlimit="10"/>
<path d="M57.7618 218.85C57.7618 218.85 36.5299 219.337 35.556 218.85C35.0861 218.612 35.0691 217.927 35.1767 217.276H58.1355C58.0605 217.811 57.9354 218.338 57.7618 218.85Z" fill="#FFA31A" stroke="#242424" stroke-width="1.00396" stroke-miterlimit="10"/>
<path d="M41.5634 124.784C41.5634 124.784 38.5852 137.982 37.4585 146.237C36.3318 154.492 35.6694 171.03 35.9072 172.927C36.145 174.823 48.0009 206.603 48.0009 206.603L49.1842 209.434L57.4845 207.775C57.4845 207.775 53.6911 195.682 52.2699 189.04C50.8488 182.399 47.7405 171.488 47.7405 169.592C47.7405 167.695 55.1009 131.47 55.6274 129.092C56.154 126.715 58.5433 123.063 58.5433 123.063L42.6504 122.74L41.5634 124.784Z" fill="#FFA31A" stroke="#242424" stroke-width="1.00396" stroke-miterlimit="10"/>
<path d="M41.5633 124.784C41.5633 124.784 39.8194 136.838 40.5385 145.217C41.2575 153.597 42.8032 171.437 42.8032 174.093C42.8032 176.748 47.0892 192.607 47.3327 197.59C47.712 204.786 47.1798 208.347 47.1798 208.347L46.9251 210.957C46.9251 210.957 51.9245 211.671 53.0172 211.982C54.2793 212.307 55.5818 212.448 56.8842 212.401C56.8842 212.401 58.7017 204.401 58.7017 197.584C58.7017 190.767 57.19 176.737 56.437 171.052C55.6839 165.368 58.0563 143.44 59.4038 139.346C60.7513 135.253 63.6955 126.584 61.7138 122.157C59.7322 117.729 41.5633 124.784 41.5633 124.784Z" fill="#FFA31A" stroke="#242424" stroke-width="1.00396" stroke-miterlimit="10"/>
<path d="M63.9165 119.937L63.7353 125.327C63.7353 125.327 60.508 125.967 56.1597 126.72C52.5701 127.343 43.5564 126.556 40.5217 126.262C40.2451 126.237 39.9894 126.104 39.8102 125.892C39.6311 125.68 39.5429 125.406 39.5648 125.129L39.8592 120.26L63.9165 119.937Z" fill="#242424"/>
<path d="M51.3019 66.2063C51.3019 66.2063 46.2062 71.7153 44.2868 75.1407C42.3674 78.5661 41.6088 83.8146 40.8897 87.9478C40.1706 92.081 42.1183 101.785 41.5691 106.241L39.8309 120.277C39.8309 120.277 39.4573 121.228 40.7085 122.27C41.9598 123.312 48.0689 123.691 53.5892 123.969C55.6049 124.07 61.6234 122.774 62.6086 122.712C63.7976 122.638 63.8372 121.126 63.8882 119.937C64.126 114.349 65.1338 99.4527 65.7962 92.9642C67.1607 79.7324 59.6927 66.9593 51.3019 66.2063Z" fill="#FFF1DD" stroke="#242424" stroke-width="1.00396" stroke-miterlimit="10"/>
<g style="mix-blend-mode:multiply">
<path d="M65.1732 100.489C65.3996 97.5503 65.6261 94.8836 65.8243 92.9642C65.8809 92.398 65.9149 91.8318 65.9432 91.2656L52.4057 93.5304L40.7762 89.5671C40.7775 91.9734 40.9136 94.3778 41.1839 96.769L52.5925 99.9622L65.1732 100.489Z" fill="#FFA31A"/>
</g>
<g style="mix-blend-mode:multiply">
<path d="M50.7979 66.7611C50.0279 67.6161 48.4992 69.3543 47.0441 71.2L55.6388 79.9363L58.4697 78.8039L50.7979 66.7611Z" fill="#FFA31A"/>
</g>
<path d="M51.3018 66.2063C51.3018 66.2063 46.2061 71.7153 44.2867 75.1407C43.7176 76.1817 43.2566 77.2783 42.9109 78.4132L53.1588 66.5743C52.5534 66.3909 51.9314 66.2676 51.3018 66.2063Z" fill="#242424"/>
<g style="mix-blend-mode:multiply">
<path d="M41.286 85.717L52.4059 89.3746L65.9094 87.8232C65.6978 84.4593 64.9504 81.1508 63.6956 78.0226L52.8079 82.3879L43.0752 77.9773C42.2793 80.507 41.6811 83.0947 41.286 85.717Z" fill="#FFA31A"/>
</g>
<g style="mix-blend-mode:multiply">
<path d="M60.4287 114.349C54.7887 115.296 49.0017 114.823 43.5903 112.973L40.8783 112.045L40.0347 118.839L43.126 119.705C49.0029 121.348 55.1452 121.821 61.2043 121.098L63.7012 120.798C63.8312 120.523 63.9043 120.224 63.9164 119.92C63.9843 118.409 64.1032 116.212 64.2561 113.692L60.4287 114.349Z" fill="#FFA31A"/>
</g>
<g style="mix-blend-mode:multiply">
<path d="M61.9402 105.098C56.3001 106.048 50.5117 105.573 45.1019 103.716L41.6481 102.533C41.7338 103.766 41.7168 105.005 41.5972 106.236L41.1952 109.502L44.6376 110.465C50.5122 112.11 56.6526 112.585 62.7102 111.863L64.4088 111.66C64.5503 109.395 64.7145 106.983 64.89 104.599L61.9402 105.098Z" fill="#FFA31A"/>
</g>
<path d="M8.82151 81.1547L19.7689 89.9566L20.2408 89.3698L9.29336 80.5678L8.82151 81.1547Z" fill="#242424"/>
<path d="M56.5728 72.3154C56.5728 72.3154 60.5871 75.0501 60.6776 81.5103C60.7173 84.3412 60.4229 86.9853 59.7718 91.6223C59.1206 96.2594 55.0781 111.36 51.9301 113.194C48.7821 115.028 43.8959 111.563 43.8959 111.563L20.2633 95.8744L14.5505 91.26L11.7196 85.9152L12.6085 84.2166L19.5783 89.5614L15.8244 86.0907L16.5605 85.1565L17.9193 86.102L21.8826 87.5854L22.7489 93.2473L23.9719 94.0853L46.5796 102.346C46.5796 102.346 46.2965 90.1786 46.506 87.8515C46.7155 85.5245 47.0043 79.6758 49.4955 75.4351" fill="#FFF1DD"/>
<mask id="mask4_16_4540" style="mask-type:luminance" maskUnits="userSpaceOnUse" x="11" y="72" width="50" height="42">
<path d="M56.5728 72.3154C56.5728 72.3154 60.5871 75.0501 60.6776 81.5103C60.7173 84.3412 60.4229 86.9853 59.7718 91.6223C59.1206 96.2594 55.0781 111.36 51.9301 113.194C48.7821 115.028 43.8959 111.563 43.8959 111.563L20.2633 95.8744L14.5505 91.26L11.7196 85.9152L12.6085 84.2166L19.5783 89.5614L15.8244 86.0907L16.5605 85.1565L17.9193 86.102L21.8826 87.5854L22.7489 93.2473L23.9719 94.0853L46.5796 102.346C46.5796 102.346 46.2965 90.1786 46.506 87.8515C46.7155 85.5245 47.0043 79.6758 49.4955 75.4351" fill="white"/>
</mask>
<g mask="url(#mask4_16_4540)">
<g style="mix-blend-mode:multiply" opacity="0.5">
<path d="M46.4211 93.151C46.4211 97.3521 46.5626 102.346 46.5626 102.346L23.9775 94.1192L22.7545 93.2813L21.8883 87.6194L17.925 86.136L16.5718 85.1735L15.8358 86.1077L19.5782 89.5614L12.6085 84.2166L11.7649 85.8869L14.5958 91.2317L20.3086 95.8744L21.7467 96.8312L52.9719 106.892L46.4211 93.151Z" fill="#FFA31A"/>
</g>
</g>
<path d="M56.5728 72.3154C56.5728 72.3154 60.5871 75.0501 60.6776 81.5103C60.7173 84.3412 60.4229 86.9853 59.7718 91.6223C59.1206 96.2594 55.0781 111.36 51.9301 113.194C48.7821 115.028 43.8959 111.563 43.8959 111.563L20.2633 95.8744L14.5505 91.26L11.7196 85.9152L12.6085 84.2166L19.5783 89.5614L15.8244 86.0907L16.5605 85.1565L17.9193 86.102L21.8826 87.5854L22.7489 93.2473L23.9719 94.0853L46.5796 102.346C46.5796 102.346 46.2965 90.1786 46.506 87.8515C46.7155 85.5245 47.0043 79.6758 49.4955 75.4351" stroke="#242424" stroke-width="1.00396" stroke-miterlimit="10"/>
<path d="M46.5797 102.346L55.2084 108.574L57.4448 104.611C57.4448 104.611 58.9905 103.393 59.217 102.476C59.4434 101.559 59.1547 100.07 59.3868 99.1526C59.6189 98.2354 60.774 97.3748 60.8815 95.1553C60.9891 92.9359 60.8815 91.0845 60.8815 91.0845C60.8815 91.0845 62.7499 83.4013 62.5461 80.0608C62.3423 76.7203 59.1207 70.815 56.5389 70.6848C53.9571 70.5546 50.5996 70.9453 47.9952 74.8859C45.3907 78.8266 45.9229 90.3314 45.5153 91.0505C45.1076 91.7696 45.6738 95.3195 45.6738 95.3195C45.4475 95.4883 45.2598 95.7033 45.1231 95.9503C44.9864 96.1973 44.9039 96.4706 44.8811 96.752C44.8358 97.6749 45.8323 99.9453 45.8323 99.9453L46.5797 102.346Z" fill="#FFF1DD" stroke="#242424" stroke-width="1.00396" stroke-miterlimit="10"/>
<g style="mix-blend-mode:multiply">
<path d="M45.7418 88.095C45.7596 89.083 45.6857 90.0705 45.521 91.0448C45.1587 91.6903 45.572 94.6061 45.6626 95.2006C50.5158 96.708 55.6477 97.0952 60.6721 96.333C60.7801 95.9392 60.8446 95.5348 60.8646 95.127C60.9779 92.9132 60.8646 91.0561 60.8646 91.0561C60.8646 91.0561 61.0288 90.3711 61.2553 89.3293C56.0517 89.66 50.8276 89.2444 45.7418 88.095Z" fill="#FFA31A"/>
</g>
<g style="mix-blend-mode:multiply">
<path d="M47.6441 75.5144C46.8345 77.1393 46.3815 79.5796 46.1211 82.0538C51.261 84.0154 56.8027 84.6899 62.263 84.0185C62.4809 82.709 62.5776 81.3823 62.5518 80.0552C62.4537 79.0061 62.2059 77.9765 61.8158 76.9978C57.048 77.109 52.2855 76.6105 47.6441 75.5144Z" fill="#FFA31A"/>
</g>
<path d="M45.8323 100.008L46.5627 102.346L55.1913 108.574L57.4278 104.611C57.4278 104.611 58.9734 103.393 59.1999 102.476C59.2403 102.317 59.265 102.154 59.2735 101.989C54.7264 101.911 50.2086 101.245 45.8323 100.008Z" fill="#242424"/>
<path d="M52.0774 211.908C52.0774 211.908 52.2699 207.005 53.2098 199.837C54.1496 192.669 51.8906 182.489 51.5112 180.791C51.1319 179.092 51.7037 175.322 51.3244 173.997C50.945 172.672 49.1106 167.021 50.192 160.465C51.2734 153.908 52.151 136.577 52.151 136.577C52.151 136.577 49.4276 134.364 48.6293 131.482C47.831 128.6 48.4425 127.694 48.4425 127.694" stroke="#242424" stroke-width="1.00396" stroke-miterlimit="10"/>
<path d="M53.34 127.96L52.2926 133.758" stroke="#242424" stroke-width="1.00396" stroke-miterlimit="10"/>
</svg>
