<svg width="28" height="28" viewBox="0 0 28 28" fill="none" xmlns="http://www.w3.org/2000/svg">
<path d="M17.5 12.8333C14.5 12.3333 14.5 12.3333 14 9.33334C13.5 12.3333 13.5 12.3333 10.5 12.8333C13.5 13.3333 13.5 13.3333 14 16.3333C14.5 13.3333 14.5 13.3333 17.5 12.8333Z" fill="#FF9900" stroke="#FF9900" stroke-width="1.5" stroke-linecap="round" stroke-linejoin="round"/>
<path fill-rule="evenodd" clip-rule="evenodd" d="M9.67496 0.984882C10.1306 0.52927 10.8693 0.52927 11.3249 0.984881L11.525 1.18505C12.8919 2.55188 15.108 2.55188 16.4748 1.18505L16.675 0.984882C17.1306 0.52927 17.8693 0.52927 18.3249 0.984881C18.7805 1.44049 18.7805 2.17918 18.3249 2.6348L18.1247 2.83496C18.0765 2.88316 18.0277 2.93035 17.9782 2.97651H19.8333C23.0549 2.97651 25.6666 5.58818 25.6666 8.80984V16.9765C25.6666 20.1982 23.0549 22.8098 19.8333 22.8098H17.9519L18.6067 25.9409C18.8105 26.5522 18.4801 27.2129 17.8689 27.4166C17.2576 27.6204 16.5969 27.29 16.3931 26.6788L15.4924 22.8098H12.5075L11.6067 26.6788C11.403 27.29 10.7423 27.6204 10.131 27.4166C9.51972 27.2129 9.18937 26.5522 9.39312 25.9409L10.0479 22.8098H8.16659C4.94492 22.8098 2.33325 20.1982 2.33325 16.9765V8.80984C2.33325 5.58818 4.94492 2.97651 8.16659 2.97651L10.0216 2.97651C9.97216 2.93035 9.92333 2.88317 9.87513 2.83497L9.67496 2.6348C9.21935 2.17919 9.21935 1.44049 9.67496 0.984882ZM11.6935 20.4765C11.6754 20.4761 11.6574 20.4761 11.6394 20.4765H8.16659C6.23359 20.4765 4.66659 18.9095 4.66659 16.9765V8.80984C4.66659 6.87684 6.23359 5.30984 8.16659 5.30984H19.8333C21.7662 5.30984 23.3333 6.87684 23.3333 8.80984V16.9765C23.3333 18.9095 21.7662 20.4765 19.8333 20.4765H16.3605C16.3425 20.4761 16.3244 20.4761 16.3064 20.4765H11.6935Z" fill="#FF9900"/>
<circle cx="8.16667" cy="17.5" r="1.16667" fill="#FF9900"/>
<circle cx="19.8334" cy="8.16667" r="1.16667" fill="#FF9900"/>
</svg>
